<?xml version="1.0" encoding="UTF-8" standalone="no"?>
<svg
   xmlns:dc="http://purl.org/dc/elements/1.1/"
   xmlns:cc="http://creativecommons.org/ns#"
   xmlns:rdf="http://www.w3.org/1999/02/22-rdf-syntax-ns#"
   xmlns:svg="http://www.w3.org/2000/svg"
   xmlns="http://www.w3.org/2000/svg"
   xmlns:sodipodi="http://sodipodi.sourceforge.net/DTD/sodipodi-0.dtd"
   xmlns:inkscape="http://www.inkscape.org/namespaces/inkscape"
   width="192px"
   height="192px"
   viewBox="0 0 192 192"
   version="1.1"
   id="svg6"
   sodipodi:docname="generic_theme_manager.svg"
   inkscape:export-filename="D:\ZeusOfTheCrows\My Files\LocalDev\Appstract\icons\appstract-light\generic_theme_manager.png"
   inkscape:export-xdpi="96"
   inkscape:export-ydpi="96"
   inkscape:version="1.0.2-2 (e86c870879, 2021-01-15)">
  <metadata
     id="metadata12">
    <rdf:RDF>
      <cc:Work
         rdf:about="">
        <dc:format>image/svg+xml</dc:format>
        <dc:type
           rdf:resource="http://purl.org/dc/dcmitype/StillImage" />
        <dc:title></dc:title>
      </cc:Work>
    </rdf:RDF>
  </metadata>
  <defs
     id="defs10" />
  <sodipodi:namedview
     pagecolor="#282828"
     bordercolor="#666666"
     borderopacity="1"
     objecttolerance="10"
     gridtolerance="10"
     guidetolerance="10"
     inkscape:pageopacity="1"
     inkscape:pageshadow="2"
     inkscape:window-width="2498"
     inkscape:window-height="1421"
     id="namedview8"
     showgrid="false"
     inkscape:zoom="2.8284271"
     inkscape:cx="117.83737"
     inkscape:cy="88.57695"
     inkscape:window-x="2617"
     inkscape:window-y="-5"
     inkscape:window-maximized="1"
     inkscape:current-layer="open-table"
     inkscape:document-rotation="0"
     inkscape:pagecheckerboard="true" />
  <!-- Generated by Pixelmator Pro 2.0.1 -->
  <g
     id="open-table">
    <path
       id="Ellipse"
       d="m 104.5,14.930395 c -43.800601,-0.24903 -84.30932,22.008012 -84.30932,65.809324 0,15.856351 18.780737,28.637971 35.168747,19.017508 C 79.255362,85.729296 87.122823,118.08524 67,144.04905 57.838697,155.86958 56.31466,164.5216 59.687366,170.55346 74.948255,197.84655 177.89508,154.2868 175.30932,85.739719 173.60837,40.64857 147.85866,15.176912 104.5,14.930395 Z m 0.92051,123.115695 c -15.452879,0.3667 -17.502208,-23.06786 -0.64276,-22.55419 16.85945,0.51367 16.09564,22.18749 0.64276,22.55419 z"
       inkscape:connector-curvature="0"
       style="fill:#86c2fb;fill-opacity:1;stroke:none;stroke-width:1"
       inkscape:label="red-big"
       sodipodi:nodetypes="ssssssszzz"
       inkscape:export-filename="D:\ZeusOfTheCrows\My Files\LocalDev\Appstract\icons\appstract-light\generic_theme_manager.png"
       inkscape:export-xdpi="96"
       inkscape:export-ydpi="96" />
    <path
       id="Ellipse-2"
       d="m 142.23695,66.841347 c 5.47638,-5.476384 5.47645,-14.355939 1.6e-4,-19.832234 -5.4763,-5.476299 -14.35585,-5.476228 -19.83224,1.56e-4 -5.47638,5.476384 -5.47645,14.355937 -1.5e-4,19.832236 5.47629,5.476294 14.35584,5.476226 19.83223,-1.58e-4 z"
       inkscape:connector-curvature="0"
       style="fill:none;fill-opacity:1;stroke:#000000;stroke-width:5.99999;stroke-linecap:round;stroke-linejoin:round;stroke-miterlimit:4;stroke-dasharray:none;stroke-opacity:1"
       inkscape:label="stroke"
       inkscape:transform-center-y="-36.151963"
       inkscape:transform-center-x="-36.151965"
       inkscape:export-filename="D:\ZeusOfTheCrows\My Files\LocalDev\Appstract\icons\appstract-light\kinemaster_alt.png"
       inkscape:export-xdpi="96"
       inkscape:export-ydpi="96" />
    <path
       id="Ellipse-2-5-1"
       d="m 144.81175,114.15761 c 7.66756,1.09014 14.76766,-4.24239 15.85787,-11.91004 1.0902,-7.667651 -4.24218,-14.767742 -11.90974,-15.857875 -7.66756,-1.090123 -14.76765,4.242405 -15.85786,11.910052 -1.09021,7.667643 4.24217,14.767743 11.90973,15.857863 z"
       inkscape:connector-curvature="0"
       style="fill:none;fill-opacity:1;stroke:#000000;stroke-width:5.99999;stroke-linecap:round;stroke-linejoin:round;stroke-miterlimit:4;stroke-dasharray:none;stroke-opacity:1"
       inkscape:label="stroke"
       inkscape:transform-center-y="7.1963808"
       inkscape:transform-center-x="-50.616873"
       inkscape:export-filename="D:\ZeusOfTheCrows\My Files\LocalDev\Appstract\icons\appstract-light\kinemaster_alt.png"
       inkscape:export-xdpi="96"
       inkscape:export-ydpi="96" />
    <path
       id="Ellipse-2-5-1-0-0-6"
       d="m 105.38577,40.870196 c -0.71896,-7.711229 -7.553555,-13.379921 -15.264862,-12.660877 -7.711312,0.719041 -13.380144,7.55363 -12.661184,15.264852 0.71897,7.711218 7.553555,13.379916 15.264873,12.660871 7.711303,-0.719043 13.380143,-7.553629 12.661173,-15.264846 z"
       inkscape:connector-curvature="0"
       style="fill:none;fill-opacity:1;stroke:#000000;stroke-width:5.99999;stroke-linecap:round;stroke-linejoin:round;stroke-miterlimit:4;stroke-dasharray:none;stroke-opacity:1"
       inkscape:label="stroke"
       inkscape:transform-center-y="-50.905092"
       inkscape:transform-center-x="4.7461983"
       inkscape:export-filename="D:\ZeusOfTheCrows\My Files\LocalDev\Appstract\icons\appstract-light\kinemaster_alt.png"
       inkscape:export-xdpi="96"
       inkscape:export-ydpi="96" />
  </g>
</svg>
