<?xml version="1.0" encoding="UTF-8" standalone="no"?>
<svg
   xmlns:dc="http://purl.org/dc/elements/1.1/"
   xmlns:cc="http://creativecommons.org/ns#"
   xmlns:rdf="http://www.w3.org/1999/02/22-rdf-syntax-ns#"
   xmlns:svg="http://www.w3.org/2000/svg"
   xmlns="http://www.w3.org/2000/svg"
   xmlns:sodipodi="http://sodipodi.sourceforge.net/DTD/sodipodi-0.dtd"
   xmlns:inkscape="http://www.inkscape.org/namespaces/inkscape"
   width="192px"
   height="192px"
   viewBox="0 0 192 192"
   version="1.1"
   id="svg6"
   sodipodi:docname="kinemaster_alt.svg"
   inkscape:export-filename="D:\ZeusOfTheCrows\My Files\LocalDev\Appstract\icons\appstract-dark\opentable.png"
   inkscape:export-xdpi="96"
   inkscape:export-ydpi="96"
   inkscape:version="1.0.2-2 (e86c870879, 2021-01-15)">
  <metadata
     id="metadata12">
    <rdf:RDF>
      <cc:Work
         rdf:about="">
        <dc:format>image/svg+xml</dc:format>
        <dc:type
           rdf:resource="http://purl.org/dc/dcmitype/StillImage" />
        <dc:title></dc:title>
      </cc:Work>
    </rdf:RDF>
  </metadata>
  <defs
     id="defs10" />
  <sodipodi:namedview
     pagecolor="#ffffff"
     bordercolor="#666666"
     borderopacity="1"
     objecttolerance="10"
     gridtolerance="10"
     guidetolerance="10"
     inkscape:pageopacity="0"
     inkscape:pageshadow="2"
     inkscape:window-width="2498"
     inkscape:window-height="1421"
     id="namedview8"
     showgrid="false"
     inkscape:zoom="2.8284271"
     inkscape:cx="100.2494"
     inkscape:cy="116.23879"
     inkscape:window-x="2617"
     inkscape:window-y="-5"
     inkscape:window-maximized="1"
     inkscape:current-layer="open-table"
     inkscape:document-rotation="0" />
  <!-- Generated by Pixelmator Pro 2.0.1 -->
  <g
     id="open-table">
    <path
       id="Ellipse"
       d="m 177.30932,96.500002 c 0,-44.905881 -36.40344,-81.309324 -81.30932,-81.309324 -44.905878,0 -81.30932,36.403443 -81.30932,81.309324 0,44.905878 36.403442,81.309328 81.30932,81.309328 44.90588,0 81.30932,-36.40345 81.30932,-81.309328 z"
       inkscape:connector-curvature="0"
       style="fill:#f86567;fill-opacity:1;stroke:none;stroke-width:1"
       inkscape:label="red-big" />
    <path
       id="Ellipse-2"
       d="m 107.74576,21.152539 c 0,-6.486793 -5.25897,-11.7457636 -11.745761,-11.7457636 -6.486794,0 -11.745763,5.2589706 -11.745763,11.7457636 0,6.486794 5.258969,11.745763 11.745763,11.745763 6.486791,0 11.745761,-5.258969 11.745761,-11.745763 z"
       inkscape:connector-curvature="0"
       style="fill:none;fill-opacity:1;stroke:#000000;stroke-width:6;stroke-linecap:round;stroke-linejoin:round;stroke-miterlimit:4;stroke-dasharray:none;stroke-opacity:1"
       inkscape:label="stroke"
       inkscape:transform-center-y="-74.843051" />
    <path
       id="Ellipse-2-1"
       d="m 170.80961,84.038699 c 6.16931,-2.004529 9.54577,-8.631218 7.54124,-14.800522 -2.00453,-6.16931 -8.63122,-9.545775 -14.80052,-7.541246 -6.16931,2.00453 -9.54578,8.631217 -7.54125,14.800527 2.00453,6.169304 8.63122,9.545771 14.80053,7.541241 z"
       inkscape:connector-curvature="0"
       style="fill:none;fill-opacity:1;stroke:#000000;stroke-width:6;stroke-linecap:round;stroke-linejoin:round;stroke-miterlimit:4;stroke-dasharray:none;stroke-opacity:1"
       inkscape:label="stroke"
       inkscape:transform-center-y="-23.127774"
       inkscape:transform-center-x="-71.179968" />
    <path
       id="Ellipse-2-1-6"
       d="m 130.48912,163.44888 c 3.81284,5.24793 11.15858,6.41137 16.4065,2.59853 5.24793,-3.81284 6.41138,-11.15859 2.59854,-16.40651 -3.81284,-5.24792 -11.15858,-6.41138 -16.40651,-2.59854 -5.24792,3.81285 -6.41138,11.15859 -2.59853,16.40652 z"
       inkscape:connector-curvature="0"
       style="fill:none;fill-opacity:1;stroke:#000000;stroke-width:6;stroke-linecap:round;stroke-linejoin:round;stroke-miterlimit:4;stroke-dasharray:none;stroke-opacity:1"
       inkscape:label="stroke"
       inkscape:transform-center-y="60.549299"
       inkscape:transform-center-x="-43.99164" />
    <path
       id="Ellipse-2-1-6-5"
       d="m 42.505836,149.64091 c -3.812845,5.24793 -2.649384,12.59366 2.598529,16.4065 5.247926,3.81285 12.593676,2.64939 16.406512,-2.59853 3.812836,-5.24792 2.649394,-12.59366 -2.598532,-16.40651 -5.247933,-3.81283 -12.593675,-2.64939 -16.406509,2.59854 z"
       inkscape:connector-curvature="0"
       style="fill:none;fill-opacity:1;stroke:#000000;stroke-width:6;stroke-linecap:round;stroke-linejoin:round;stroke-miterlimit:4;stroke-dasharray:none;stroke-opacity:1"
       inkscape:label="stroke"
       inkscape:transform-center-y="60.549299"
       inkscape:transform-center-x="43.991642" />
    <path
       id="Ellipse-2-1-6-5-9"
       d="m 28.449664,61.696935 c -6.169312,-2.004532 -12.795987,1.371941 -14.800509,7.541232 -2.004539,6.169307 1.371929,12.796004 7.54124,14.800531 6.169291,2.004533 12.795979,-1.371932 14.800519,-7.541236 2.004514,-6.169317 -1.371941,-12.796006 -7.54125,-14.800527 z"
       inkscape:connector-curvature="0"
       style="fill:none;fill-opacity:1;stroke:#000000;stroke-width:6;stroke-linecap:round;stroke-linejoin:round;stroke-miterlimit:4;stroke-dasharray:none;stroke-opacity:1"
       inkscape:label="stroke"
       inkscape:transform-center-y="-23.127775"
       inkscape:transform-center-x="71.17997" />
  </g>
</svg>
