<?xml version="1.0" encoding="UTF-8" standalone="no"?>
<svg
   xmlns:dc="http://purl.org/dc/elements/1.1/"
   xmlns:cc="http://creativecommons.org/ns#"
   xmlns:rdf="http://www.w3.org/1999/02/22-rdf-syntax-ns#"
   xmlns:svg="http://www.w3.org/2000/svg"
   xmlns="http://www.w3.org/2000/svg"
   xmlns:sodipodi="http://sodipodi.sourceforge.net/DTD/sodipodi-0.dtd"
   xmlns:inkscape="http://www.inkscape.org/namespaces/inkscape"
   width="192px"
   height="192px"
   viewBox="0 0 192 192"
   version="1.1"
   id="svg6"
   sodipodi:docname="kinemaster_alt.svg"
   inkscape:export-filename="D:\ZeusOfTheCrows\My Files\LocalDev\Appstract\icons\appstract-dark\opentable.png"
   inkscape:export-xdpi="96"
   inkscape:export-ydpi="96"
   inkscape:version="1.0.2-2 (e86c870879, 2021-01-15)">
  <metadata
     id="metadata12">
    <rdf:RDF>
      <cc:Work
         rdf:about="">
        <dc:format>image/svg+xml</dc:format>
        <dc:type
           rdf:resource="http://purl.org/dc/dcmitype/StillImage" />
        <dc:title></dc:title>
      </cc:Work>
    </rdf:RDF>
  </metadata>
  <defs
     id="defs10" />
  <sodipodi:namedview
     pagecolor="#ffffff"
     bordercolor="#666666"
     borderopacity="1"
     objecttolerance="10"
     gridtolerance="10"
     guidetolerance="10"
     inkscape:pageopacity="0"
     inkscape:pageshadow="2"
     inkscape:window-width="2498"
     inkscape:window-height="1421"
     id="namedview8"
     showgrid="false"
     inkscape:zoom="4"
     inkscape:cx="73.872744"
     inkscape:cy="66.435453"
     inkscape:window-x="2617"
     inkscape:window-y="-5"
     inkscape:window-maximized="1"
     inkscape:current-layer="open-table"
     inkscape:document-rotation="0" />
  <!-- Generated by Pixelmator Pro 2.0.1 -->
  <g
     id="open-table">
    <path
       id="Ellipse"
       d="M 175.30932,96.500002 C 175.30932,52.69869 139.80131,17.190678 96,17.190678 c -43.801309,0 -79.30932,35.508012 -79.30932,79.309324 0,43.801308 35.508011,79.309328 79.30932,79.309328 43.80131,0 79.30932,-35.50802 79.30932,-79.309328 z"
       inkscape:connector-curvature="0"
       style="fill:#f86567;fill-opacity:1;stroke:none;stroke-width:1"
       inkscape:label="red-big" />
    <path
       id="Ellipse-2"
       d="m 114.85557,27.262731 c 0,-10.413467 -8.44227,-18.8558697 -18.855568,-18.8558697 -10.413305,0 -18.855573,8.4424027 -18.855573,18.8558697 0,10.413468 8.442268,18.855868 18.855573,18.855868 10.413298,0 18.855568,-8.4424 18.855568,-18.855868 z"
       inkscape:connector-curvature="0"
       style="fill:none;fill-opacity:1;stroke:#000000;stroke-width:5.99999;stroke-linecap:round;stroke-linejoin:round;stroke-miterlimit:4;stroke-dasharray:none;stroke-opacity:1"
       inkscape:label="stroke"
       inkscape:transform-center-y="-68.743771"
       inkscape:transform-center-x="-2.0010432e-06"
       inkscape:export-filename="D:\ZeusOfTheCrows\My Files\LocalDev\Appstract\icons\appstract-light\kinemaster_alt.png"
       inkscape:export-xdpi="96"
       inkscape:export-ydpi="96" />
    <path
       id="Ellipse-2-5"
       d="m 167.20488,92.696499 c 9.90365,-3.217938 15.32391,-13.855991 12.10603,-23.759777 -3.21789,-9.903796 -13.85577,-15.324147 -23.75941,-12.106209 -9.90364,3.217939 -15.32391,13.855982 -12.10602,23.759777 3.21788,9.903786 13.85576,15.324148 23.7594,12.106209 z"
       inkscape:connector-curvature="0"
       style="fill:none;fill-opacity:1;stroke:#000000;stroke-width:5.99999;stroke-linecap:round;stroke-linejoin:round;stroke-miterlimit:4;stroke-dasharray:none;stroke-opacity:1"
       inkscape:label="stroke"
       inkscape:transform-center-y="-21.242996"
       inkscape:transform-center-x="-65.378193"
       inkscape:export-filename="D:\ZeusOfTheCrows\My Files\LocalDev\Appstract\icons\appstract-light\kinemaster_alt.png"
       inkscape:export-xdpi="96"
       inkscape:export-ydpi="96" />
    <path
       id="Ellipse-2-5-1"
       d="m 167.20488,92.696499 c 9.90365,-3.217938 15.32391,-13.855991 12.10603,-23.759777 -3.21789,-9.903796 -13.85577,-15.324147 -23.75941,-12.106209 -9.90364,3.217939 -15.32391,13.855982 -12.10602,23.759777 3.21788,9.903786 13.85576,15.324148 23.7594,12.106209 z"
       inkscape:connector-curvature="0"
       style="fill:none;fill-opacity:1;stroke:#000000;stroke-width:5.99999;stroke-linecap:round;stroke-linejoin:round;stroke-miterlimit:4;stroke-dasharray:none;stroke-opacity:1"
       inkscape:label="stroke"
       inkscape:transform-center-y="-21.242996"
       inkscape:transform-center-x="-65.378193"
       inkscape:export-filename="D:\ZeusOfTheCrows\My Files\LocalDev\Appstract\icons\appstract-light\kinemaster_alt.png"
       inkscape:export-xdpi="96"
       inkscape:export-ydpi="96" />
    <path
       id="Ellipse-2-5-1-0"
       d="m 121.15147,162.70457 c 6.12079,8.42468 17.91297,10.2924 26.33751,4.17152 8.42454,-6.12087 10.29223,-17.91324 4.17145,-26.33792 -6.1208,-8.42466 -17.91297,-10.2924 -26.33751,-4.17151 -8.42454,6.12087 -10.29223,17.91324 -4.17145,26.33791 z"
       inkscape:connector-curvature="0"
       style="fill:none;fill-opacity:1;stroke:#000000;stroke-width:5.99999;stroke-linecap:round;stroke-linejoin:round;stroke-miterlimit:4;stroke-dasharray:none;stroke-opacity:1"
       inkscape:label="stroke"
       inkscape:transform-center-y="55.614872"
       inkscape:transform-center-x="-40.40595"
       inkscape:export-filename="D:\ZeusOfTheCrows\My Files\LocalDev\Appstract\icons\appstract-light\kinemaster_alt.png"
       inkscape:export-xdpi="96"
       inkscape:export-ydpi="96" />
    <path
       id="Ellipse-2-5-1-0-0"
       d="m 40.339591,140.53817 c -6.120797,8.42468 -4.253088,20.21705 4.171444,26.33792 8.424536,6.12089 20.216718,4.25315 26.337509,-4.17151 6.120778,-8.42468 4.253091,-20.21704 -4.171454,-26.33792 -8.424532,-6.12088 -20.216717,-4.25315 -26.337499,4.17151 z"
       inkscape:connector-curvature="0"
       style="fill:none;fill-opacity:1;stroke:#000000;stroke-width:5.99999;stroke-linecap:round;stroke-linejoin:round;stroke-miterlimit:4;stroke-dasharray:none;stroke-opacity:1"
       inkscape:label="stroke"
       inkscape:transform-center-y="55.614875"
       inkscape:transform-center-x="40.405937"
       inkscape:export-filename="D:\ZeusOfTheCrows\My Files\LocalDev\Appstract\icons\appstract-light\kinemaster_alt.png"
       inkscape:export-xdpi="96"
       inkscape:export-ydpi="96" />
    <path
       id="Ellipse-2-5-1-0-0-6"
       d="M 36.448514,56.830518 C 26.544867,53.612571 15.906987,59.032938 12.689102,68.936724 9.4712083,78.840516 14.891488,89.478561 24.795124,92.696506 34.698764,95.914435 45.336643,90.494091 48.554533,80.59029 51.772418,70.686505 46.352146,60.048454 36.448514,56.830518 Z"
       inkscape:connector-curvature="0"
       style="fill:none;fill-opacity:1;stroke:#000000;stroke-width:5.99999;stroke-linecap:round;stroke-linejoin:round;stroke-miterlimit:4;stroke-dasharray:none;stroke-opacity:1"
       inkscape:label="stroke"
       inkscape:transform-center-y="-21.242993"
       inkscape:transform-center-x="65.378184"
       inkscape:export-filename="D:\ZeusOfTheCrows\My Files\LocalDev\Appstract\icons\appstract-light\kinemaster_alt.png"
       inkscape:export-xdpi="96"
       inkscape:export-ydpi="96" />
  </g>
</svg>
